<svg width="189" height="216" viewBox="0 0 189 216" fill="none" xmlns="http://www.w3.org/2000/svg">
<path d="M101.083 213.428L101.082 213.428C99.324 214.456 96.9406 215 94.5007 215C92.0609 215 89.6769 214.456 87.9176 213.428L87.9175 213.428L7.59265 166.494C5.83243 165.465 4.17285 163.646 2.9507 161.504C1.72884 159.362 1 156.996 1 154.934V61.0665C1 59.0034 1.72888 56.6365 2.9507 54.4951C4.17283 52.353 5.83231 50.5342 7.59229 49.5065L7.59253 49.5063L87.9172 2.57087C87.9173 2.57083 87.9174 2.57078 87.9175 2.57073C89.6769 1.54341 92.0609 1 94.5007 1C96.9407 1 99.3242 1.54345 101.083 2.57073C101.083 2.57074 101.083 2.57075 101.083 2.57076L181.407 49.5063L181.408 49.5065C183.168 50.5342 184.827 52.353 186.049 54.4951C187.271 56.6366 188 59.0034 188 61.0665V154.934C188 156.996 187.271 159.362 186.049 161.504C184.827 163.646 183.168 165.465 181.407 166.494L101.083 213.428Z" fill="white" stroke="#EEEEEE" stroke-width="2"/>
</svg>
