<svg width="208" height="54" viewBox="0 0 208 54" fill="none" xmlns="http://www.w3.org/2000/svg">
<path d="M48.0678 38.6109C48.0678 39.7461 47.2566 41.1392 46.2651 41.707L25.8363 53.4033C24.8454 53.9711 23.2229 53.9711 22.2315 53.4033L1.80268 41.707C0.811216 41.1392 0 39.7461 0 38.6109V15.2183C0 14.0827 0.811216 12.6896 1.80268 12.1223L22.2315 0.425481C23.2229 -0.141827 24.8454 -0.141827 25.8363 0.425481L46.2651 12.1223C47.2566 12.6896 48.0678 14.0827 48.0678 15.2183V38.6109Z" fill="#00A3B4"/>
<path d="M24.034 37.8932C19.1721 37.8932 15.2163 33.6312 15.2163 28.3925C15.2163 23.1543 19.1721 18.8923 24.034 18.8923C28.8958 18.8923 32.8511 23.1543 32.8511 28.3925C32.8511 33.6312 28.8958 37.8932 24.034 37.8932ZM36.3535 28.3925C36.3535 21.2389 30.8273 15.4185 24.034 15.4185C20.544 15.4185 17.3909 16.9566 15.1475 19.4206V10.4114H11.7164V28.2781C11.7164 28.3168 11.7139 28.3543 11.7139 28.3925C11.7139 34.7253 16.0455 40.0096 21.752 41.1403C21.9627 41.2422 23.2677 41.921 23.9386 43.4047C23.9756 43.4864 24.0924 43.4864 24.1293 43.4047C24.8002 41.921 26.1052 41.2422 26.3159 41.1403C32.0224 40.0096 36.3535 34.7253 36.3535 28.3925Z" fill="white"/>
<path d="M92.9825 25.8052C93.3833 24.7958 93.9574 23.8903 94.6873 23.1141C95.4106 22.3457 96.2498 21.7433 97.1813 21.3244C99.0928 20.4645 101.304 20.4645 103.215 21.3239C104.147 21.7437 104.987 22.3457 105.709 23.1141C106.439 23.8903 107.012 24.7958 107.414 25.8057C107.561 26.1775 107.708 26.8953 107.823 27.585H92.4823C92.5866 26.975 92.7533 26.38 92.9825 25.8052ZM105.709 35.1475C104.986 35.9158 104.147 36.5178 103.216 36.9371C101.303 37.7966 99.0933 37.7966 97.1808 36.9371C96.2498 36.5183 95.4106 35.9163 94.6873 35.1475C93.9574 34.3707 93.3833 33.4653 92.982 32.4553C92.7533 31.8811 92.5861 31.2865 92.4823 30.6761H111.161V29.1305C111.161 28.9186 110.848 26.0136 110.314 24.671C109.769 23.3002 108.986 22.067 107.988 21.0061C106.984 19.9383 105.812 19.0981 104.502 18.509C101.776 17.2832 98.619 17.2832 95.8939 18.509C94.5859 19.0977 93.4128 19.9378 92.4083 21.0061C91.4104 22.067 90.6277 23.3002 90.0831 24.671C89.5199 26.0844 89.2354 27.585 89.2354 29.1305C89.2354 30.6766 89.5199 32.1771 90.0825 33.5896C90.6277 34.9608 91.4099 36.194 92.4083 37.256C93.4138 38.3242 94.5864 39.1644 95.8939 39.752C97.2562 40.3649 98.7049 40.6758 100.198 40.6758C101.691 40.6758 103.139 40.3649 104.503 39.752C105.811 39.1639 106.983 38.3238 107.988 37.2555C108.951 36.2317 109.708 35.044 110.25 33.7301H106.775C106.468 34.2386 106.115 34.7148 105.709 35.1475Z" fill="#00A3B4"/>
<path d="M119.915 25.8052C120.315 24.7958 120.89 23.8903 121.619 23.1141C122.343 22.3457 123.182 21.7433 124.114 21.3244C126.025 20.4645 128.236 20.4645 130.147 21.3239C131.08 21.7437 131.919 22.3457 132.641 23.1141C133.371 23.8903 133.945 24.7958 134.346 25.8057C134.494 26.1775 134.64 26.8953 134.755 27.585H119.414C119.519 26.975 119.685 26.38 119.915 25.8052ZM132.641 35.1475C131.918 35.9158 131.079 36.5178 130.148 36.9371C128.235 37.7966 126.025 37.7966 124.113 36.9371C123.182 36.5183 122.343 35.9163 121.619 35.1475C120.89 34.3707 120.315 33.4653 119.914 32.4553C119.685 31.8811 119.518 31.2865 119.414 30.6761H138.093V29.1305C138.093 28.9186 137.78 26.0136 137.246 24.671C136.701 23.3002 135.918 22.067 134.92 21.0061C133.917 19.9383 132.744 19.0981 131.434 18.509C128.708 17.2832 125.551 17.2832 122.826 18.509C121.518 19.0977 120.345 19.9378 119.341 21.0061C118.343 22.067 117.56 23.3002 117.015 24.671C116.452 26.0844 116.167 27.585 116.167 29.1305C116.167 30.6766 116.452 32.1771 117.015 33.5896C117.56 34.9608 118.342 36.194 119.341 37.256C120.346 38.3242 121.519 39.1644 122.826 39.752C124.188 40.3649 125.637 40.6758 127.13 40.6758C128.623 40.6758 130.071 40.3649 131.435 39.752C132.743 39.1639 133.916 38.3238 134.92 37.2555C135.884 36.2317 136.64 35.044 137.182 33.7301H133.707C133.4 34.2386 133.047 34.7148 132.641 35.1475Z" fill="#00A3B4"/>
<path d="M169.903 25.8052C170.305 24.7958 170.878 23.8903 171.608 23.1141C172.332 22.3457 173.171 21.7433 174.102 21.3244C176.014 20.4645 178.225 20.4645 180.136 21.3239C181.068 21.7437 181.907 22.3457 182.63 23.1141C183.36 23.8903 183.933 24.7958 184.335 25.8057C184.482 26.1775 184.629 26.8953 184.744 27.585H169.403C169.507 26.975 169.674 26.38 169.903 25.8052ZM182.63 35.1475C181.907 35.9158 181.068 36.5178 180.137 36.9371C178.224 37.7966 176.014 37.7966 174.102 36.9371C173.171 36.5183 172.332 35.9163 171.608 35.1475C170.878 34.3707 170.305 33.4653 169.903 32.4553C169.674 31.8811 169.507 31.2865 169.403 30.6761H188.082V29.1305C188.082 28.9186 187.769 26.0136 187.235 24.671C186.689 23.3002 185.907 22.067 184.909 21.0061C183.905 19.9383 182.733 19.0981 181.423 18.509C178.697 17.2832 175.54 17.2832 172.815 18.509C171.507 19.0977 170.334 19.9378 169.329 21.0061C168.331 22.067 167.549 23.3002 167.004 24.671C166.441 26.0844 166.156 27.585 166.156 29.1305C166.156 30.6766 166.441 32.1771 167.003 33.5896C167.549 34.9608 168.331 36.194 169.329 37.256C170.335 38.3242 171.507 39.1644 172.815 39.752C174.177 40.3649 175.626 40.6758 177.119 40.6758C178.612 40.6758 180.06 40.3649 181.424 39.752C182.732 39.1639 183.904 38.3238 184.909 37.2555C185.872 36.2317 186.629 35.044 187.171 33.7301H183.696C183.389 34.2386 183.036 34.7148 182.63 35.1475Z" fill="#00A3B4"/>
<path d="M159.664 17.5819L152.117 35.6803L144.571 17.5819H141.181L150.833 40.7294H153.402L163.054 17.5819H159.664Z" fill="#00A3B4"/>
<path d="M72.9144 37.5885C68.5882 37.5885 65.0678 33.7959 65.0678 29.1344C65.0678 24.4729 68.5882 20.6802 72.9144 20.6802C77.2406 20.6802 80.7606 24.4729 80.7606 29.1344C80.7606 33.7959 77.2406 37.5885 72.9144 37.5885ZM83.8771 29.1344C83.8771 22.7684 78.9594 17.5891 72.9144 17.5891C69.8088 17.5891 67.0033 18.9579 65.0064 21.1505V13.1335H61.9537V29.0324C61.9532 29.0666 61.9512 29.1002 61.9512 29.1344C61.9512 34.7696 65.8057 39.4717 70.8836 40.4782C71.0714 40.5688 72.2325 41.1732 72.8296 42.4925C72.8625 42.5658 72.9663 42.5658 72.9993 42.4925C73.5959 41.1732 74.756 40.5692 74.9448 40.4782C80.0228 39.4722 83.8771 34.7696 83.8771 29.1344Z" fill="#00A3B4"/>
<path d="M197.985 40.6759H194.868V25.4108C194.868 23.2221 195.66 21.2305 197.1 19.8027C198.539 18.376 200.453 17.5893 202.489 17.5893H202.611C204.647 17.5893 206.561 18.376 208 19.8032L205.795 21.9884C204.945 21.1448 203.814 20.6804 202.611 20.6804H202.489C201.286 20.6804 200.154 21.1448 199.304 21.9884C198.466 22.8201 197.985 24.0672 197.985 25.4108V40.6759Z" fill="#00A3B4"/>
</svg>
